#define close_width 10
#define close_height 10
static unsigned char close_bits[] = {
   0x00, 0x00, 0x00, 0x00, 0x86, 0x01, 0xcc, 0x00, 0x78, 0x00, 0x30, 0x00,
   0x78, 0x00, 0xcc, 0x00, 0x86, 0x01, 0x00, 0x00 };
