#define max_width 10
#define max_height 10
static unsigned char max_bits[] = {
   0x00, 0x00, 0x00, 0x00, 0x00, 0x00, 0x30, 0x00, 0x78, 0x00, 0xcc, 0x00,
   0x86, 0x01, 0x00, 0x00, 0x00, 0x00, 0x00, 0x00 };
