<?xml version="1.0" encoding="UTF-8" standalone="no"?>
<!-- Created with Inkscape (http://www.inkscape.org/) -->

<svg
   xmlns:dc="http://purl.org/dc/elements/1.1/"
   xmlns:cc="http://creativecommons.org/ns#"
   xmlns:rdf="http://www.w3.org/1999/02/22-rdf-syntax-ns#"
   xmlns:svg="http://www.w3.org/2000/svg"
   xmlns="http://www.w3.org/2000/svg"
   xmlns:xlink="http://www.w3.org/1999/xlink"
   xmlns:sodipodi="http://sodipodi.sourceforge.net/DTD/sodipodi-0.dtd"
   xmlns:inkscape="http://www.inkscape.org/namespaces/inkscape"
   width="200"
   height="200"
   id="svg2424"
   sodipodi:version="0.32"
   inkscape:version="0.48.1 r9760"
   version="1.0"
   sodipodi:docname="archlinux-menu-icon.svg"
   inkscape:output_extension="org.inkscape.output.svg.inkscape"
   inkscape:export-filename="/home/thayer/archlinux-logo-contest/archer-full-detail.png"
   inkscape:export-xdpi="90"
   inkscape:export-ydpi="90">
  <defs
     id="defs2426">
    <linearGradient
       inkscape:collect="always"
       xlink:href="#path1082_2_"
       id="linearGradient2197"
       gradientUnits="userSpaceOnUse"
       gradientTransform="matrix(-0.3444088,0,0,0.3443895,292.65265,0.3134079)"
       x1="541.33502"
       y1="104.50665"
       x2="606.91248"
       y2="303.14029" />
    <linearGradient
       gradientUnits="userSpaceOnUse"
       id="path1082_2_"
       y2="129.3468"
       x2="112.49853"
       y1="6.1372099"
       x1="112.49854"
       gradientTransform="translate(287,-83)">
      <stop
         id="stop193"
         offset="0"
         style="stop-color:#ffffff;stop-opacity:0" />
      <stop
         id="stop195"
         offset="1"
         style="stop-color:#ffffff;stop-opacity:0.27450982;" />
      <midPointStop
         id="midPointStop197"
         style="stop-color:#FFFFFF"
         offset="0" />
      <midPointStop
         id="midPointStop199"
         style="stop-color:#FFFFFF"
         offset="0.5" />
      <midPointStop
         id="midPointStop201"
         style="stop-color:#000000"
         offset="1" />
    </linearGradient>
    <linearGradient
       inkscape:collect="always"
       xlink:href="#path1082_2_"
       id="linearGradient2544"
       gradientUnits="userSpaceOnUse"
       gradientTransform="matrix(-0.3937741,0,0,0.393752,357.51969,122.00151)"
       x1="541.33502"
       y1="104.50665"
       x2="606.91248"
       y2="303.14029" />
    <linearGradient
       id="linearGradient3388">
      <stop
         style="stop-color:#000000;stop-opacity:0;"
         offset="0"
         id="stop3390" />
      <stop
         style="stop-color:#000000;stop-opacity:0.37113401;"
         offset="1"
         id="stop3392" />
    </linearGradient>
    <linearGradient
       inkscape:collect="always"
       xlink:href="#linearGradient3388"
       id="linearGradient4416"
       gradientUnits="userSpaceOnUse"
       gradientTransform="matrix(0.749107,0,0,0.749107,-35.459862,91.44108)"
       x1="490.72305"
       y1="237.72447"
       x2="490.72305"
       y2="183.9644" />
    <linearGradient
       inkscape:collect="always"
       xlink:href="#path1082_2_"
       id="linearGradient3020"
       gradientUnits="userSpaceOnUse"
       gradientTransform="matrix(-0.3444088,0,0,0.3443895,292.65265,0.3134079)"
       x1="541.33502"
       y1="104.50665"
       x2="606.91248"
       y2="303.14029" />
  </defs>
  <sodipodi:namedview
     id="base"
     pagecolor="#ffffff"
     bordercolor="#666666"
     borderopacity="1.0"
     gridtolerance="10000"
     guidetolerance="10"
     objecttolerance="10"
     inkscape:pageopacity="0.0"
     inkscape:pageshadow="2"
     inkscape:zoom="1"
     inkscape:cx="342.50321"
     inkscape:cy="46.862915"
     inkscape:document-units="px"
     inkscape:current-layer="g2424"
     inkscape:window-width="1440"
     inkscape:window-height="816"
     inkscape:window-x="0"
     inkscape:window-y="31"
     showgrid="false"
     inkscape:window-maximized="1" />
  <metadata
     id="metadata2429">
    <rdf:RDF>
      <cc:Work
         rdf:about="">
        <dc:format>image/svg+xml</dc:format>
        <dc:type
           rdf:resource="http://purl.org/dc/dcmitype/StillImage" />
      </cc:Work>
    </rdf:RDF>
  </metadata>
  <g
     inkscape:label="Layer 1"
     inkscape:groupmode="layer"
     id="layer1"
     transform="translate(-34.777313,-129.21933)">
    <g
       id="g2424"
       transform="matrix(0.8746356,0,0,0.8746356,14.730518,23.408954)">
      <text
         id="text2634"
         y="263.83624"
         x="683.27826"
         style="font-size:8.44138241px;font-style:normal;font-weight:normal;fill:#87cdde;fill-opacity:1;stroke:none;font-family:DejaVu Sans Mono"
         xml:space="preserve"><tspan
           y="263.83624"
           x="683.27826"
           id="tspan2636"
           sodipodi:role="line">TM</tspan></text>
      <g
         id="g3015"
         transform="translate(-6.66349,-0.34509275)">
        <path
           inkscape:connector-curvature="0"
           id="path2518"
           transform="matrix(1.1433333,0,0,1.1433333,22.920168,121.64318)"
           d="m 105.8125,16.625 c -7.39687,18.135158 -11.858304,29.997682 -20.09375,47.59375 5.04936,5.35232 11.247211,11.585364 21.3125,18.625 C 96.210077,78.390904 88.828713,73.920352 83.3125,69.28125 72.7727,91.274163 56.259864,122.60209 22.75,182.8125 49.087628,167.60733 69.504089,158.23318 88.53125,154.65625 87.714216,151.1422 87.2497,147.34107 87.28125,143.375 l 0.03125,-0.84375 c 0.417917,-16.87382 9.195665,-29.84979 19.59375,-28.96875 10.39809,0.88104 18.48041,15.28242 18.0625,32.15625 -0.0786,3.17512 -0.43674,6.22955 -1.0625,9.0625 18.82058,3.68164 39.01873,13.03179 65,28.03125 -5.123,-9.4318 -9.69572,-17.93388 -14.0625,-26.03125 -6.87839,-5.33121 -14.05289,-12.2698 -28.6875,-19.78125 10.05899,2.61375 17.2611,5.62932 22.875,9 C 124.63297,63.338161 121.03766,52.354109 105.8125,16.625 z"
           style="fill:#1793d1;fill-opacity:1;fill-rule:evenodd;stroke:none" />
        <path
           inkscape:connector-curvature="0"
           style="fill:#ffffff;fill-opacity:0.16568047;fill-rule:evenodd;stroke:none"
           d="M 197.39609,253.57278 C 156.21466,197.6777 146.66924,152.62797 144.25142,141.87263 c 21.96737,50.6686 21.81733,51.28995 53.14467,111.70015 z"
           id="path2522"
           sodipodi:nodetypes="ccc" />
        <path
           inkscape:connector-curvature="0"
           transform="matrix(1.1433333,0,0,1.1433333,22.920168,121.64318)"
           id="path2520"
           d="m 106.125,17.375 c -0.91722,2.254891 -1.8084,4.448436 -2.65625,6.53125 -0.94561,2.322901 -1.85627,4.544651 -2.75,6.71875 -0.893659,2.174125 -1.778174,4.280817 -2.65625,6.375 -0.878125,2.09428 -1.757434,4.166742 -2.65625,6.25 -0.898758,2.083181 -1.825509,4.171499 -2.78125,6.3125 -0.955741,2.141073 -1.951078,4.357244 -3,6.625 -1.049012,2.267773 -2.134103,4.599237 -3.3125,7.0625 -0.159937,0.334315 -0.337294,0.723862 -0.5,1.0625 5.033263,5.331238 11.21238,11.532822 21.21875,18.53125 C 96.243607,78.404701 88.885659,73.936188 83.375,69.3125 c -0.288695,0.589401 -0.546247,1.11509 -0.84375,1.71875 -1.039262,2.108872 -2.186145,4.384198 -3.34375,6.6875 -0.04815,0.09727 -0.07662,0.18361 -0.125,0.28125 -0.293424,0.583398 -0.542079,1.090361 -0.84375,1.6875 -0.0457,0.09175 -0.110347,0.189176 -0.15625,0.28125 -4.788223,9.604365 -10.706761,21.07613 -18.3125,35.3125 21.063326,-11.87299 43.79704,-28.984581 85.0625,-14.25 -2.07033,-3.921158 -3.96248,-7.573976 -5.75,-11.03125 -1.78749,-3.457382 -3.45794,-6.719588 -5,-9.78125 -1.54195,-3.061601 -2.97879,-5.922086 -4.3125,-8.65625 -1.3337,-2.734102 -2.55614,-5.337491 -3.71875,-7.8125 -1.16268,-2.474956 -2.25245,-4.840951 -3.28125,-7.125 -1.02887,-2.284023 -2.00517,-4.494964 -2.9375,-6.65625 -0.93242,-2.161399 -1.81449,-4.268239 -2.6875,-6.375 -0.87309,-2.106822 -1.74283,-4.191904 -2.59375,-6.3125 -0.28464,-0.709204 -0.59007,-1.440418 -0.875,-2.15625 -2.34712,-5.50695 -4.74718,-11.209786 -7.53125,-17.75 z"
           style="fill:url(#linearGradient3020);fill-opacity:1;fill-rule:evenodd;stroke:none" />
      </g>
    </g>
  </g>
</svg>
